<mxfile host="app.diagrams.net" modified="2022-10-31T08:27:15.216Z" agent="5.0 (Macintosh; Intel Mac OS X 10_15_7) AppleWebKit/605.1.15 (KHTML, like Gecko) Version/16.0 Safari/605.1.15" etag="fXA2rQyLms786-KTvgBv" version="20.5.1" type="github">
  <diagram id="C5RBs43oDa-KdzZeNtuy" name="Page-1">
    <mxGraphModel dx="1187" dy="698" grid="1" gridSize="10" guides="1" tooltips="1" connect="1" arrows="1" fold="1" page="1" pageScale="1" pageWidth="827" pageHeight="1169" math="0" shadow="0">
      <root>
        <mxCell id="WIyWlLk6GJQsqaUBKTNV-0" />
        <mxCell id="WIyWlLk6GJQsqaUBKTNV-1" parent="WIyWlLk6GJQsqaUBKTNV-0" />
        <mxCell id="vQ9fCbvpKYj9B5tJM7OD-10" style="edgeStyle=orthogonalEdgeStyle;rounded=0;orthogonalLoop=1;jettySize=auto;html=1;exitX=0.5;exitY=1;exitDx=0;exitDy=0;entryX=0.5;entryY=0;entryDx=0;entryDy=0;" edge="1" parent="WIyWlLk6GJQsqaUBKTNV-1" source="vQ9fCbvpKYj9B5tJM7OD-0" target="vQ9fCbvpKYj9B5tJM7OD-9">
          <mxGeometry relative="1" as="geometry" />
        </mxCell>
        <mxCell id="vQ9fCbvpKYj9B5tJM7OD-11" style="edgeStyle=orthogonalEdgeStyle;rounded=0;orthogonalLoop=1;jettySize=auto;html=1;exitX=0.5;exitY=1;exitDx=0;exitDy=0;entryX=0.5;entryY=0;entryDx=0;entryDy=0;" edge="1" parent="WIyWlLk6GJQsqaUBKTNV-1" source="vQ9fCbvpKYj9B5tJM7OD-0" target="vQ9fCbvpKYj9B5tJM7OD-8">
          <mxGeometry relative="1" as="geometry" />
        </mxCell>
        <mxCell id="vQ9fCbvpKYj9B5tJM7OD-0" value="mqttSub()" style="ellipse;whiteSpace=wrap;html=1;" vertex="1" parent="WIyWlLk6GJQsqaUBKTNV-1">
          <mxGeometry x="150" y="40" width="120" height="80" as="geometry" />
        </mxCell>
        <mxCell id="vQ9fCbvpKYj9B5tJM7OD-5" value="" style="edgeStyle=orthogonalEdgeStyle;rounded=0;orthogonalLoop=1;jettySize=auto;html=1;" edge="1" parent="WIyWlLk6GJQsqaUBKTNV-1" source="vQ9fCbvpKYj9B5tJM7OD-1" target="vQ9fCbvpKYj9B5tJM7OD-3">
          <mxGeometry relative="1" as="geometry" />
        </mxCell>
        <mxCell id="vQ9fCbvpKYj9B5tJM7OD-6" style="edgeStyle=orthogonalEdgeStyle;rounded=0;orthogonalLoop=1;jettySize=auto;html=1;exitX=0;exitY=1;exitDx=0;exitDy=0;entryX=0.5;entryY=0;entryDx=0;entryDy=0;" edge="1" parent="WIyWlLk6GJQsqaUBKTNV-1" source="vQ9fCbvpKYj9B5tJM7OD-1" target="vQ9fCbvpKYj9B5tJM7OD-2">
          <mxGeometry relative="1" as="geometry" />
        </mxCell>
        <mxCell id="vQ9fCbvpKYj9B5tJM7OD-7" style="edgeStyle=orthogonalEdgeStyle;rounded=0;orthogonalLoop=1;jettySize=auto;html=1;exitX=1;exitY=1;exitDx=0;exitDy=0;entryX=0.5;entryY=0;entryDx=0;entryDy=0;" edge="1" parent="WIyWlLk6GJQsqaUBKTNV-1" source="vQ9fCbvpKYj9B5tJM7OD-1" target="vQ9fCbvpKYj9B5tJM7OD-4">
          <mxGeometry relative="1" as="geometry" />
        </mxCell>
        <mxCell id="vQ9fCbvpKYj9B5tJM7OD-1" value="getClimate()" style="ellipse;whiteSpace=wrap;html=1;" vertex="1" parent="WIyWlLk6GJQsqaUBKTNV-1">
          <mxGeometry x="570" y="40" width="120" height="80" as="geometry" />
        </mxCell>
        <mxCell id="vQ9fCbvpKYj9B5tJM7OD-2" value="getTemp()" style="rounded=1;whiteSpace=wrap;html=1;" vertex="1" parent="WIyWlLk6GJQsqaUBKTNV-1">
          <mxGeometry x="430" y="160" width="120" height="60" as="geometry" />
        </mxCell>
        <mxCell id="vQ9fCbvpKYj9B5tJM7OD-3" value="getHumidity()" style="rounded=1;whiteSpace=wrap;html=1;" vertex="1" parent="WIyWlLk6GJQsqaUBKTNV-1">
          <mxGeometry x="570" y="160" width="120" height="60" as="geometry" />
        </mxCell>
        <mxCell id="vQ9fCbvpKYj9B5tJM7OD-4" value="getAirQual()" style="rounded=1;whiteSpace=wrap;html=1;" vertex="1" parent="WIyWlLk6GJQsqaUBKTNV-1">
          <mxGeometry x="707" y="160" width="120" height="60" as="geometry" />
        </mxCell>
        <mxCell id="vQ9fCbvpKYj9B5tJM7OD-8" value="changeParams()" style="rounded=1;whiteSpace=wrap;html=1;" vertex="1" parent="WIyWlLk6GJQsqaUBKTNV-1">
          <mxGeometry x="40" y="160" width="120" height="60" as="geometry" />
        </mxCell>
        <mxCell id="vQ9fCbvpKYj9B5tJM7OD-9" value="getValues()" style="rounded=1;whiteSpace=wrap;html=1;" vertex="1" parent="WIyWlLk6GJQsqaUBKTNV-1">
          <mxGeometry x="240" y="160" width="120" height="60" as="geometry" />
        </mxCell>
      </root>
    </mxGraphModel>
  </diagram>
</mxfile>
